<svg width="72" height="72" viewBox="0 0 72 72" fill="none" xmlns="http://www.w3.org/2000/svg">
<rect width="72" height="72" rx="36" fill="#184A97"/>
<path d="M27.0933 18.1101C27.8597 18.1101 28.4793 18.6784 28.4793 19.3788V21.9418C29.7077 21.9198 31.0863 21.9198 32.6373 21.9198H40.0293C41.5803 21.9198 42.9572 21.9198 44.1873 21.9418V19.3788C44.1873 18.6784 44.807 18.1101 45.5733 18.1101C46.3397 18.1101 46.9593 18.6784 46.9593 19.3788V22.0518C49.6177 22.2461 51.3648 22.7264 52.6482 23.8998C53.9315 25.0749 54.454 26.6736 54.6667 29.1101V30.9434H18V29.1101C18.2127 26.6736 18.7352 25.0768 20.0185 23.8998C21.3018 22.7264 23.0472 22.2461 25.7073 22.0518V19.3788C25.7073 18.6784 26.3288 18.1101 27.0933 18.1101Z" fill="#FFB200"/>
<path opacity="0.5" d="M54.6663 40.11V36.4434C54.6663 34.9052 54.6424 32.1625 54.6186 30.9434H18.0106C17.9868 32.1625 18.0106 34.9052 18.0106 36.4434V40.11C18.0106 47.0235 18.0106 50.4812 20.1556 52.628C22.3061 54.7767 25.7619 54.7767 32.6736 54.7767H40.0069C46.9186 54.7767 50.3726 54.7767 52.5213 52.628C54.6663 50.4812 54.6663 47.0235 54.6663 40.11Z" fill="#FFB200"/>
<path fill-rule="evenodd" clip-rule="evenodd" d="M39.9993 36.9016C39.1484 36.9016 38.3324 37.2396 37.7307 37.8413C37.129 38.443 36.791 39.259 36.791 40.1099V43.7766C36.791 44.6275 37.129 45.4436 37.7307 46.0452C38.3324 46.6469 39.1484 46.9849 39.9993 46.9849C40.8503 46.9849 41.6663 46.6469 42.268 46.0452C42.8697 45.4436 43.2077 44.6275 43.2077 43.7766V40.1099C43.2077 39.259 42.8697 38.443 42.268 37.8413C41.6663 37.2396 40.8503 36.9016 39.9993 36.9016ZM39.9993 39.6516C39.8778 39.6516 39.7612 39.6999 39.6753 39.7859C39.5893 39.8718 39.541 39.9884 39.541 40.1099V43.7766C39.541 43.8982 39.5893 44.0147 39.6753 44.1007C39.7612 44.1867 39.8778 44.2349 39.9993 44.2349C40.1209 44.2349 40.2375 44.1867 40.3234 44.1007C40.4094 44.0147 40.4577 43.8982 40.4577 43.7766V40.1099C40.4577 39.9884 40.4094 39.8718 40.3234 39.7859C40.2375 39.6999 40.1209 39.6516 39.9993 39.6516Z" fill="white"/>
<path d="M34.9579 38.2766C34.9577 38.0049 34.8769 37.7392 34.7258 37.5133C34.5747 37.2875 34.36 37.1114 34.1089 37.0074C33.8578 36.9035 33.5815 36.8762 33.315 36.9292C33.0484 36.9821 32.8035 37.1129 32.6112 37.305L29.8612 40.055C29.6183 40.3156 29.4861 40.6604 29.4924 41.0166C29.4987 41.3728 29.643 41.7127 29.8949 41.9646C30.1468 42.2165 30.4867 42.3608 30.8429 42.3671C31.1992 42.3734 31.5439 42.2412 31.8046 41.9983L32.2079 41.595V45.61C32.2079 45.9746 32.3528 46.3244 32.6106 46.5822C32.8685 46.8401 33.2182 46.985 33.5829 46.985C33.9476 46.985 34.2973 46.8401 34.5552 46.5822C34.813 46.3244 34.9579 45.9746 34.9579 45.61V38.2766Z" fill="white"/>
</svg>
